<svg id="visual" viewBox="0 0 900 600" width="900" height="600" xmlns="http://www.w3.org/2000/svg" xmlns:xlink="http://www.w3.org/1999/xlink" version="1.1"><rect x="0" y="0" width="900" height="600" fill="#f7f1f3"></rect><g transform="translate(1026.4641436839186 -75.21324374400393)"><path d="M141.7 -157.9C203.1 -117.4 285.7 -91.2 324.4 -33.3C363 24.5 357.8 114 307.8 156.3C257.9 198.6 163.3 193.8 61.8 277.3C-39.7 360.8 -148.1 532.8 -237.2 546.2C-326.3 559.5 -396.1 414.3 -467.8 276.6C-539.4 139 -612.9 9 -601.6 -114.9C-590.2 -238.7 -494.1 -356.5 -379.7 -387.6C-265.3 -418.8 -132.6 -363.4 -46.2 -308.3C40.2 -253.2 80.4 -198.4 141.7 -157.9" fill="#9176b6"></path></g></svg>