<svg id="visual" viewBox="0 0 960 540" width="960" height="540" xmlns="http://www.w3.org/2000/svg" xmlns:xlink="http://www.w3.org/1999/xlink" version="1.1"><rect x="0" y="0" width="960" height="540" fill="#FFFFFF"></rect><g transform="translate(489.6882826339881 268.3309953178546)"><path d="M100.6 -146.8C126.8 -119.5 141.8 -85.2 154.5 -49.5C167.1 -13.7 177.2 23.6 168.9 56.6C160.6 89.7 133.8 118.5 102.5 135C71.3 151.5 35.7 155.7 -8.6 167.6C-52.9 179.5 -105.8 199 -141.8 184C-177.8 169 -196.8 119.6 -189.9 76.8C-182.9 34.1 -149.9 -2 -123.9 -27.3C-97.8 -52.6 -78.7 -67.3 -59.2 -96.8C-39.7 -126.3 -19.8 -170.6 8.7 -182.6C37.2 -194.6 74.5 -174.1 100.6 -146.8" fill="#94c9f4"></path></g></svg>