<svg id="visual" viewBox="0 0 900 900" width="900" height="900" xmlns="http://www.w3.org/2000/svg" xmlns:xlink="http://www.w3.org/1999/xlink" version="1.1"><rect x="0" y="0" width="900" height="900" fill="#f0f3f4"></rect><defs><linearGradient id="grad1_0" x1="0%" y1="0%" x2="100%" y2="100%"><stop offset="30%" stop-color="#fbae3c" stop-opacity="1"></stop><stop offset="70%" stop-color="#fbae3c" stop-opacity="1"></stop></linearGradient></defs><defs><linearGradient id="grad1_1" x1="0%" y1="0%" x2="100%" y2="100%"><stop offset="30%" stop-color="#fbae3c" stop-opacity="1"></stop><stop offset="70%" stop-color="#c5d36e" stop-opacity="1"></stop></linearGradient></defs><defs><linearGradient id="grad1_2" x1="0%" y1="0%" x2="100%" y2="100%"><stop offset="30%" stop-color="#a6e7b5" stop-opacity="1"></stop><stop offset="70%" stop-color="#c5d36e" stop-opacity="1"></stop></linearGradient></defs><defs><linearGradient id="grad1_3" x1="0%" y1="0%" x2="100%" y2="100%"><stop offset="30%" stop-color="#a6e7b5" stop-opacity="1"></stop><stop offset="70%" stop-color="#bbefe9" stop-opacity="1"></stop></linearGradient></defs><defs><linearGradient id="grad1_4" x1="0%" y1="0%" x2="100%" y2="100%"><stop offset="30%" stop-color="#f0f3f4" stop-opacity="1"></stop><stop offset="70%" stop-color="#bbefe9" stop-opacity="1"></stop></linearGradient></defs><defs><linearGradient id="grad2_0" x1="0%" y1="0%" x2="100%" y2="100%"><stop offset="30%" stop-color="#fbae3c" stop-opacity="1"></stop><stop offset="70%" stop-color="#fbae3c" stop-opacity="1"></stop></linearGradient></defs><defs><linearGradient id="grad2_1" x1="0%" y1="0%" x2="100%" y2="100%"><stop offset="30%" stop-color="#c5d36e" stop-opacity="1"></stop><stop offset="70%" stop-color="#fbae3c" stop-opacity="1"></stop></linearGradient></defs><defs><linearGradient id="grad2_2" x1="0%" y1="0%" x2="100%" y2="100%"><stop offset="30%" stop-color="#c5d36e" stop-opacity="1"></stop><stop offset="70%" stop-color="#a6e7b5" stop-opacity="1"></stop></linearGradient></defs><defs><linearGradient id="grad2_3" x1="0%" y1="0%" x2="100%" y2="100%"><stop offset="30%" stop-color="#bbefe9" stop-opacity="1"></stop><stop offset="70%" stop-color="#a6e7b5" stop-opacity="1"></stop></linearGradient></defs><defs><linearGradient id="grad2_4" x1="0%" y1="0%" x2="100%" y2="100%"><stop offset="30%" stop-color="#bbefe9" stop-opacity="1"></stop><stop offset="70%" stop-color="#f0f3f4" stop-opacity="1"></stop></linearGradient></defs><g transform="translate(900, 0)"><path d="M0 636.4C-41 625.8 -82.1 615.1 -118.2 594.4C-154.4 573.6 -185.7 542.6 -211.2 510C-236.8 477.4 -256.7 443 -277.2 414.9C-297.8 386.8 -319.1 364.8 -348.6 348.6C-378.1 332.4 -415.8 322.1 -459.8 307.2C-503.8 292.4 -554.2 273 -583 241.5C-611.7 210 -618.9 166.4 -624.2 124.2C-629.5 81.9 -632.9 40.9 -636.4 0L0 0Z" fill="#d5f1f4"></path><path d="M0 509.1C-32.8 500.6 -65.7 492.1 -94.6 475.5C-123.5 458.9 -148.5 434.1 -169 408C-189.4 381.9 -205.3 354.4 -221.8 331.9C-238.2 309.4 -255.3 291.8 -278.9 278.9C-302.5 266 -332.6 257.7 -367.8 245.8C-403.1 233.9 -443.4 218.4 -466.4 193.2C-489.4 168 -495.1 133.1 -499.3 99.3C-503.6 65.5 -506.3 32.8 -509.1 0L0 0Z" fill="#a9ecd4"></path><path d="M0 381.8C-24.6 375.5 -49.2 369.1 -70.9 356.6C-92.6 344.1 -111.4 325.6 -126.7 306C-142.1 286.4 -154 265.8 -166.3 248.9C-178.7 232.1 -191.5 218.9 -209.2 209.2C-226.9 199.5 -249.5 193.3 -275.9 184.3C-302.3 175.4 -332.5 163.8 -349.8 144.9C-367 126 -371.3 99.8 -374.5 74.5C-377.7 49.1 -379.8 24.6 -381.8 0L0 0Z" fill="#b0de92"></path><path d="M0 254.6C-16.4 250.3 -32.8 246.1 -47.3 237.7C-61.8 229.4 -74.3 217 -84.5 204C-94.7 190.9 -102.7 177.2 -110.9 166C-119.1 154.7 -127.6 145.9 -139.4 139.4C-151.2 133 -166.3 128.8 -183.9 122.9C-201.5 116.9 -221.7 109.2 -233.2 96.6C-244.7 84 -247.5 66.6 -249.7 49.7C-251.8 32.8 -253.2 16.4 -254.6 0L0 0Z" fill="#dfc34e"></path><path d="M0 127.3C-8.2 125.2 -16.4 123 -23.6 118.9C-30.9 114.7 -37.1 108.5 -42.2 102C-47.4 95.5 -51.3 88.6 -55.4 83C-59.6 77.4 -63.8 73 -69.7 69.7C-75.6 66.5 -83.2 64.4 -92 61.4C-100.8 58.5 -110.8 54.6 -116.6 48.3C-122.3 42 -123.8 33.3 -124.8 24.8C-125.9 16.4 -126.6 8.2 -127.3 0L0 0Z" fill="#fbae3c"></path></g><g transform="translate(0, 900)"><path d="M0 -636.4C46.7 -648.2 93.5 -659.9 124.2 -624.2C154.9 -588.4 169.5 -505.2 192.5 -464.7C215.4 -424.2 246.7 -426.5 283.3 -424C320 -421.6 362.1 -414.3 394.6 -394.6C427 -374.8 449.9 -342.6 459 -306.7C468.1 -270.7 463.5 -231 482.3 -199.8C501 -168.5 543.2 -145.8 572.8 -113.9C602.4 -82.1 619.4 -41 636.4 0L0 0Z" fill="#d5f1f4"></path><path d="M0 -509.1C37.4 -518.5 74.8 -527.9 99.3 -499.3C123.9 -470.7 135.6 -404.1 154 -371.8C172.4 -339.4 197.3 -341.2 226.7 -339.2C256 -337.3 289.7 -331.4 315.7 -315.7C341.6 -299.9 359.9 -274.1 367.2 -245.3C374.5 -216.6 370.8 -184.8 385.8 -159.8C400.8 -134.8 434.6 -116.6 458.2 -91.1C481.9 -65.6 495.5 -32.8 509.1 0L0 0Z" fill="#a9ecd4"></path><path d="M0 -381.8C28 -388.9 56.1 -395.9 74.5 -374.5C92.9 -353.1 101.7 -303.1 115.5 -278.8C129.3 -254.5 148 -255.9 170 -254.4C192 -252.9 217.3 -248.6 236.7 -236.7C256.2 -224.9 269.9 -205.6 275.4 -184C280.9 -162.4 278.1 -138.6 289.4 -119.9C300.6 -101.1 325.9 -87.5 343.7 -68.4C361.4 -49.2 371.6 -24.6 381.8 0L0 0Z" fill="#b0de92"></path><path d="M0 -254.6C18.7 -259.3 37.4 -264 49.7 -249.7C61.9 -235.4 67.8 -202.1 77 -185.9C86.2 -169.7 98.7 -170.6 113.3 -169.6C128 -168.6 144.8 -165.7 157.8 -157.8C170.8 -149.9 179.9 -137.1 183.6 -122.7C187.2 -108.3 185.4 -92.4 192.9 -79.9C200.4 -67.4 217.3 -58.3 229.1 -45.6C240.9 -32.8 247.8 -16.4 254.6 0L0 0Z" fill="#dfc34e"></path><path d="M0 -127.3C9.3 -129.6 18.7 -132 24.8 -124.8C31 -117.7 33.9 -101 38.5 -92.9C43.1 -84.8 49.3 -85.3 56.7 -84.8C64 -84.3 72.4 -82.9 78.9 -78.9C85.4 -75 90 -68.5 91.8 -61.3C93.6 -54.1 92.7 -46.2 96.5 -40C100.2 -33.7 108.6 -29.2 114.6 -22.8C120.5 -16.4 123.9 -8.2 127.3 0L0 0Z" fill="#fbae3c"></path></g></svg>