<svg id="visual" viewBox="0 0 900 600" width="900" height="600" xmlns="http://www.w3.org/2000/svg" xmlns:xlink="http://www.w3.org/1999/xlink" version="1.1"><rect x="0" y="0" width="900" height="600" fill="#f7f1f3"></rect><g transform="translate(973.1079172194143 -92.02088615773408)"><path d="M207.2 -210.3C318 -154 491.4 -135.6 552.4 -57.7C613.5 20.2 562.2 157.6 500.5 311.8C438.7 466 366.4 637.1 246.6 683C126.9 728.9 -40.4 649.6 -219.3 590C-398.2 530.3 -588.8 490.1 -671.7 374.3C-754.7 258.6 -729.9 67.1 -682 -105.7C-634.2 -278.5 -563.3 -432.6 -445.8 -487.7C-328.3 -542.9 -164.1 -498.9 -58 -429.9C48.2 -360.8 96.4 -266.6 207.2 -210.3" fill="#00b5ba"></path></g></svg>