<svg id="visual" viewBox="0 0 900 600" width="900" height="600" xmlns="http://www.w3.org/2000/svg" xmlns:xlink="http://www.w3.org/1999/xlink" version="1.1"><rect x="0" y="0" width="900" height="600" fill="#f7f1f3"></rect><g transform="translate(916.3383377147632 -69.54163790388256)"><path d="M201.5 -187.5C322.6 -138.5 524.7 -133.3 549.8 -83.3C574.9 -33.3 423 61.6 334.6 173C246.3 284.4 221.5 412.4 133.5 503.8C45.6 595.1 -105.5 650 -203.3 597.5C-301.2 545 -345.9 385.3 -413.6 248.3C-481.3 111.4 -572 -2.7 -583.9 -132C-595.7 -261.3 -528.6 -405.6 -418.1 -456.5C-307.7 -507.3 -153.8 -464.7 -56.8 -396.9C40.2 -329.2 80.4 -236.4 201.5 -187.5" fill="#00b5ba"></path></g></svg>