<svg id="visual" viewBox="0 0 900 600" width="900" height="600" xmlns="http://www.w3.org/2000/svg" xmlns:xlink="http://www.w3.org/1999/xlink" version="1.1"><rect x="0" y="0" width="900" height="600" fill="#f7f1f3"></rect><g transform="translate(962.9623244654734 -19.365204371048435)"><path d="M330.2 -409.8C471.9 -351.5 661.1 -313.9 685.3 -225.9C709.5 -137.8 568.7 0.6 488.7 131.5C408.6 262.3 389.1 385.6 317.8 485.4C246.5 585.2 123.2 661.6 -5.5 669.2C-134.2 676.7 -268.4 615.5 -401.6 535.7C-534.7 456 -666.8 357.8 -742.4 219.1C-817.9 80.3 -836.9 -98.9 -783.9 -252.4C-730.9 -406 -605.9 -533.9 -463.2 -591.9C-320.5 -649.9 -160.3 -637.9 -33 -592.5C94.2 -547 188.5 -468.1 330.2 -409.8" fill="#00b5ba"></path></g></svg>