<svg id="visual" viewBox="0 0 900 600" width="900" height="600" xmlns="http://www.w3.org/2000/svg" xmlns:xlink="http://www.w3.org/1999/xlink" version="1.1"><rect x="0" y="0" width="900" height="600" fill="#575e95"></rect><g transform="translate(905.2908928418506 -48.52952809536674)"><path d="M338.5 -396.4C421.5 -333.7 459.9 -210.8 432.1 -113.8C404.4 -16.9 310.4 54 238.1 98.1C165.7 142.1 114.9 159.1 36.1 255.8C-42.8 352.4 -149.6 528.6 -237.5 543.8C-325.5 559 -394.4 413.3 -428.3 282.3C-462.2 151.3 -461 35.1 -412.7 -44C-364.5 -123 -269 -164.9 -192.4 -228.7C-115.7 -292.6 -57.9 -378.3 34.9 -419.9C127.7 -461.5 255.4 -459 338.5 -396.4" fill="#9176b6"></path></g></svg>