<svg id="visual" viewBox="0 0 900 900" width="900" height="900" xmlns="http://www.w3.org/2000/svg" xmlns:xlink="http://www.w3.org/1999/xlink" version="1.1"><rect x="0" y="0" width="900" height="900" fill="#e9eff4"></rect><g fill="#237aa6"><circle r="95" cx="861" cy="264"></circle><circle r="48" cx="564" cy="254"></circle><circle r="73" cx="197" cy="865"></circle><circle r="64" cx="176" cy="330"></circle><circle r="66" cx="446" cy="32"></circle><circle r="87" cx="349" cy="233"></circle><circle r="57" cx="22" cy="69"></circle><circle r="84" cx="563" cy="681"></circle><circle r="54" cx="858" cy="704"></circle><circle r="77" cx="644" cy="458"></circle><circle r="75" cx="310" cy="518"></circle><circle r="66" cx="677" cy="1"></circle><circle r="48" cx="127" cy="639"></circle><circle r="47" cx="619" cy="890"></circle><circle r="72" cx="228" cy="42"></circle><circle r="54" cx="872" cy="44"></circle><circle r="75" cx="375" cy="763"></circle><circle r="59" cx="856" cy="501"></circle><circle r="89" cx="7" cy="853"></circle><circle r="55" cx="11" cy="423"></circle></g></svg>