<svg id="visual" viewBox="0 0 960 540" width="960" height="540" xmlns="http://www.w3.org/2000/svg" xmlns:xlink="http://www.w3.org/1999/xlink" version="1.1"><rect x="0" y="0" width="960" height="540" fill="#FFFFFF"></rect><g transform="translate(496.09120918626024 291.9914670363172)"><path d="M58.2 -99.1C76.8 -66.7 94 -51.4 110.7 -29.1C127.4 -6.8 143.6 22.6 139.2 48C134.7 73.4 109.7 95 83.1 105.2C56.4 115.3 28.2 114.2 -12 130.8C-52.3 147.3 -104.6 181.7 -135.9 173C-167.1 164.3 -177.2 112.6 -169.8 70.5C-162.3 28.4 -137.3 -4 -132.5 -50.6C-127.7 -97.1 -143.2 -157.8 -124.5 -190.2C-105.8 -222.6 -52.9 -226.8 -16.5 -204.1C19.8 -181.3 39.7 -131.6 58.2 -99.1" fill="#94c9f4"></path></g></svg>