<svg id="visual" viewBox="0 0 900 900" width="900" height="900" xmlns="http://www.w3.org/2000/svg" xmlns:xlink="http://www.w3.org/1999/xlink" version="1.1"><rect x="0" y="0" width="900" height="900" fill="#f5f1f7"></rect><path d="M509 900L425 900L425 831L253 831L253 762L301 762L301 692L319 692L319 623L382 623L382 554L310 554L310 485L474 485L474 415L280 415L280 346L482 346L482 277L445 277L445 208L283 208L283 138L519 138L519 69L245 69L245 0L900 0L900 69L900 69L900 138L900 138L900 208L900 208L900 277L900 277L900 346L900 346L900 415L900 415L900 485L900 485L900 554L900 554L900 623L900 623L900 692L900 692L900 762L900 762L900 831L900 831L900 900L900 900Z" fill="#5358fc"></path><path d="M441 900L658 900L658 831L561 831L561 762L601 762L601 692L458 692L458 623L679 623L679 554L475 554L475 485L558 485L558 415L443 415L443 346L427 346L427 277L652 277L652 208L667 208L667 138L559 138L559 69L651 69L651 0L900 0L900 69L900 69L900 138L900 138L900 208L900 208L900 277L900 277L900 346L900 346L900 415L900 415L900 485L900 485L900 554L900 554L900 623L900 623L900 692L900 692L900 762L900 762L900 831L900 831L900 900L900 900Z" fill="#003890"></path><path d="M597 900L644 900L644 831L606 831L606 762L786 762L786 692L796 692L796 623L742 623L742 554L758 554L758 485L761 485L761 415L589 415L589 346L652 346L652 277L628 277L628 208L699 208L699 138L763 138L763 69L744 69L744 0L900 0L900 69L900 69L900 138L900 138L900 208L900 208L900 277L900 277L900 346L900 346L900 415L900 415L900 485L900 485L900 554L900 554L900 623L900 623L900 692L900 692L900 762L900 762L900 831L900 831L900 900L900 900Z" fill="#02112a"></path></svg>