<svg id="visual" viewBox="0 0 900 450" width="900" height="450" xmlns="http://www.w3.org/2000/svg" xmlns:xlink="http://www.w3.org/1999/xlink" version="1.1"><rect x="0" y="0" width="900" height="450" fill="#001122"></rect><path d="M0 334L129 264L257 310L386 323L514 323L643 280L771 274L900 289L900 451L771 451L643 451L514 451L386 451L257 451L129 451L0 451Z" fill="#f5730a"></path><path d="M0 331L129 316L257 309L386 357L514 358L643 354L771 310L900 298L900 451L771 451L643 451L514 451L386 451L257 451L129 451L0 451Z" fill="#da5b09"></path><path d="M0 360L129 374L257 337L386 378L514 334L643 371L771 372L900 376L900 451L771 451L643 451L514 451L386 451L257 451L129 451L0 451Z" fill="#be4407"></path><path d="M0 374L129 386L257 384L386 405L514 379L643 384L771 403L900 386L900 451L771 451L643 451L514 451L386 451L257 451L129 451L0 451Z" fill="#a32d04"></path><path d="M0 404L129 411L257 405L386 405L514 405L643 400L771 397L900 407L900 451L771 451L643 451L514 451L386 451L257 451L129 451L0 451Z" fill="#871400"></path></svg>