<svg id="visual" viewBox="0 0 900 450" width="900" height="450" xmlns="http://www.w3.org/2000/svg" xmlns:xlink="http://www.w3.org/1999/xlink" version="1.1"><g stroke-width="1" stroke-linejoin="bevel"><path d="M501 214L513 274L575 251Z" fill="#15384f" stroke="#15384f"></path><path d="M575 251L575 166L501 214Z" fill="#112e42" stroke="#112e42"></path><path d="M420 364L514 360L513 274Z" fill="#205a7a" stroke="#205a7a"></path><path d="M513 274L581 380L575 251Z" fill="#205a7a" stroke="#205a7a"></path><path d="M501 214L402 296L513 274Z" fill="#00101c" stroke="#00101c"></path><path d="M514 360L581 380L513 274Z" fill="#205a7a" stroke="#205a7a"></path><path d="M727 190L637 104L575 166Z" fill="#205a7a" stroke="#205a7a"></path><path d="M575 166L511 81L501 214Z" fill="#15384f" stroke="#15384f"></path><path d="M501 214L360 199L402 296Z" fill="#19435d" stroke="#19435d"></path><path d="M727 190L575 166L575 251Z" fill="#112e42" stroke="#112e42"></path><path d="M575 166L637 104L511 81Z" fill="#277297" stroke="#277297"></path><path d="M402 296L420 364L513 274Z" fill="#277297" stroke="#277297"></path><path d="M514 360L520 450L581 380Z" fill="#0c2435" stroke="#0c2435"></path><path d="M391 125L360 199L501 214Z" fill="#112e42" stroke="#112e42"></path><path d="M402 296L309 354L420 364Z" fill="#081a28" stroke="#081a28"></path><path d="M511 81L391 125L501 214Z" fill="#205a7a" stroke="#205a7a"></path><path d="M731 281L727 190L575 251Z" fill="#246688" stroke="#246688"></path><path d="M713 340L731 281L575 251Z" fill="#00101c" stroke="#00101c"></path><path d="M581 380L713 340L575 251Z" fill="#081a28" stroke="#081a28"></path><path d="M420 364L520 450L514 360Z" fill="#19435d" stroke="#19435d"></path><path d="M581 380L683 450L713 340Z" fill="#205a7a" stroke="#205a7a"></path><path d="M520 450L589 450L581 380Z" fill="#19435d" stroke="#19435d"></path><path d="M731 281L769 209L727 190Z" fill="#081a28" stroke="#081a28"></path><path d="M727 190L727 91L637 104Z" fill="#19435d" stroke="#19435d"></path><path d="M814 232L769 209L731 281Z" fill="#19435d" stroke="#19435d"></path><path d="M766 96L727 91L727 190Z" fill="#277297" stroke="#277297"></path><path d="M624 0L490 0L511 81Z" fill="#1d4e6b" stroke="#1d4e6b"></path><path d="M624 0L511 81L637 104Z" fill="#0c2435" stroke="#0c2435"></path><path d="M511 81L490 0L391 125Z" fill="#0c2435" stroke="#0c2435"></path><path d="M211 247L293 309L360 199Z" fill="#0c2435" stroke="#0c2435"></path><path d="M360 199L293 309L402 296Z" fill="#277297" stroke="#277297"></path><path d="M420 364L374 450L520 450Z" fill="#246688" stroke="#246688"></path><path d="M293 309L309 354L402 296Z" fill="#246688" stroke="#246688"></path><path d="M703 0L624 0L637 104Z" fill="#00101c" stroke="#00101c"></path><path d="M589 450L683 450L581 380Z" fill="#081a28" stroke="#081a28"></path><path d="M713 340L786 338L731 281Z" fill="#0c2435" stroke="#0c2435"></path><path d="M309 354L374 450L420 364Z" fill="#246688" stroke="#246688"></path><path d="M798 450L786 338L713 340Z" fill="#246688" stroke="#246688"></path><path d="M769 209L766 96L727 190Z" fill="#205a7a" stroke="#205a7a"></path><path d="M727 91L703 0L637 104Z" fill="#0c2435" stroke="#0c2435"></path><path d="M900 162L766 96L769 209Z" fill="#112e42" stroke="#112e42"></path><path d="M295 96L275 149L391 125Z" fill="#19435d" stroke="#19435d"></path><path d="M391 125L275 149L360 199Z" fill="#246688" stroke="#246688"></path><path d="M786 338L814 232L731 281Z" fill="#081a28" stroke="#081a28"></path><path d="M373 0L295 96L391 125Z" fill="#246688" stroke="#246688"></path><path d="M490 0L373 0L391 125Z" fill="#277297" stroke="#277297"></path><path d="M793 0L703 0L727 91Z" fill="#1d4e6b" stroke="#1d4e6b"></path><path d="M293 309L239 321L309 354Z" fill="#246688" stroke="#246688"></path><path d="M309 354L268 450L374 450Z" fill="#15384f" stroke="#15384f"></path><path d="M211 247L239 321L293 309Z" fill="#297ea6" stroke="#297ea6"></path><path d="M275 149L211 247L360 199Z" fill="#297ea6" stroke="#297ea6"></path><path d="M183 162L211 247L275 149Z" fill="#246688" stroke="#246688"></path><path d="M683 450L798 450L713 340Z" fill="#1d4e6b" stroke="#1d4e6b"></path><path d="M786 338L900 293L814 232Z" fill="#246688" stroke="#246688"></path><path d="M237 450L309 354L239 321Z" fill="#112e42" stroke="#112e42"></path><path d="M237 450L268 450L309 354Z" fill="#297ea6" stroke="#297ea6"></path><path d="M373 0L288 0L295 96Z" fill="#081a28" stroke="#081a28"></path><path d="M167 99L183 162L275 149Z" fill="#1d4e6b" stroke="#1d4e6b"></path><path d="M900 116L793 0L766 96Z" fill="#246688" stroke="#246688"></path><path d="M766 96L793 0L727 91Z" fill="#1d4e6b" stroke="#1d4e6b"></path><path d="M167 99L275 149L295 96Z" fill="#205a7a" stroke="#205a7a"></path><path d="M88 367L237 450L239 321Z" fill="#297ea6" stroke="#297ea6"></path><path d="M99 272L239 321L211 247Z" fill="#081a28" stroke="#081a28"></path><path d="M900 359L900 293L786 338Z" fill="#205a7a" stroke="#205a7a"></path><path d="M814 232L900 162L769 209Z" fill="#0c2435" stroke="#0c2435"></path><path d="M900 293L900 162L814 232Z" fill="#081a28" stroke="#081a28"></path><path d="M798 450L900 359L786 338Z" fill="#19435d" stroke="#19435d"></path><path d="M900 162L900 116L766 96Z" fill="#205a7a" stroke="#205a7a"></path><path d="M213 0L167 99L295 96Z" fill="#081a28" stroke="#081a28"></path><path d="M183 162L99 272L211 247Z" fill="#112e42" stroke="#112e42"></path><path d="M288 0L213 0L295 96Z" fill="#205a7a" stroke="#205a7a"></path><path d="M798 450L900 450L900 359Z" fill="#19435d" stroke="#19435d"></path><path d="M900 116L900 0L793 0Z" fill="#081a28" stroke="#081a28"></path><path d="M213 0L139 56L167 99Z" fill="#112e42" stroke="#112e42"></path><path d="M65 213L99 272L183 162Z" fill="#19435d" stroke="#19435d"></path><path d="M65 213L183 162L167 99Z" fill="#0c2435" stroke="#0c2435"></path><path d="M99 272L88 367L239 321Z" fill="#15384f" stroke="#15384f"></path><path d="M0 161L65 213L167 99Z" fill="#112e42" stroke="#112e42"></path><path d="M99 272L0 335L88 367Z" fill="#0c2435" stroke="#0c2435"></path><path d="M0 450L97 450L88 367Z" fill="#00101c" stroke="#00101c"></path><path d="M88 367L97 450L237 450Z" fill="#0c2435" stroke="#0c2435"></path><path d="M139 56L0 161L167 99Z" fill="#00101c" stroke="#00101c"></path><path d="M213 0L62 0L139 56Z" fill="#00101c" stroke="#00101c"></path><path d="M65 213L0 261L99 272Z" fill="#205a7a" stroke="#205a7a"></path><path d="M0 161L0 261L65 213Z" fill="#1d4e6b" stroke="#1d4e6b"></path><path d="M0 82L0 161L139 56Z" fill="#081a28" stroke="#081a28"></path><path d="M0 261L0 335L99 272Z" fill="#205a7a" stroke="#205a7a"></path><path d="M62 0L0 82L139 56Z" fill="#112e42" stroke="#112e42"></path><path d="M0 335L0 450L88 367Z" fill="#1d4e6b" stroke="#1d4e6b"></path><path d="M62 0L0 0L0 82Z" fill="#205a7a" stroke="#205a7a"></path></g></svg>