<svg id="visual" viewBox="0 0 960 540" width="960" height="540" xmlns="http://www.w3.org/2000/svg" xmlns:xlink="http://www.w3.org/1999/xlink" version="1.1"><g stroke-width="1" stroke-linejoin="bevel"><path d="M550.3 275L640 302L542.3 206Z" fill="#081a28" stroke="#081a28"></path><path d="M640 302L666 140L542.3 206Z" fill="#112e42" stroke="#112e42"></path><path d="M640 302L748.7 235L666 140Z" fill="#15384f" stroke="#15384f"></path><path d="M564.3 386L626 378L640 302Z" fill="#297ea6" stroke="#297ea6"></path><path d="M640 302L755.7 350L748.7 235Z" fill="#112e42" stroke="#112e42"></path><path d="M666 140L612 82L542.3 206Z" fill="#00101c" stroke="#00101c"></path><path d="M748.7 235L741.7 147L666 140Z" fill="#246688" stroke="#246688"></path><path d="M666 140L733.7 116L612 82Z" fill="#081a28" stroke="#081a28"></path><path d="M550.3 275L564.3 386L640 302Z" fill="#15384f" stroke="#15384f"></path><path d="M612 82L568.3 74L542.3 206Z" fill="#297ea6" stroke="#297ea6"></path><path d="M741.7 147L733.7 116L666 140Z" fill="#297ea6" stroke="#297ea6"></path><path d="M626 378L755.7 350L640 302Z" fill="#112e42" stroke="#112e42"></path><path d="M414.7 91L422.7 201L542.3 206Z" fill="#15384f" stroke="#15384f"></path><path d="M542.3 206L422.7 201L550.3 275Z" fill="#19435d" stroke="#19435d"></path><path d="M550.3 275L447.7 381L564.3 386Z" fill="#0c2435" stroke="#0c2435"></path><path d="M422.7 201L393.7 233L550.3 275Z" fill="#15384f" stroke="#15384f"></path><path d="M393.7 233L447.7 381L550.3 275Z" fill="#277297" stroke="#277297"></path><path d="M755.7 350L824.3 296L748.7 235Z" fill="#297ea6" stroke="#297ea6"></path><path d="M748.7 235L854.3 193L741.7 147Z" fill="#1d4e6b" stroke="#1d4e6b"></path><path d="M741.7 147L828.3 91L733.7 116Z" fill="#277297" stroke="#277297"></path><path d="M741.7 0L614 0L612 82Z" fill="#0c2435" stroke="#0c2435"></path><path d="M612 82L614 0L568.3 74Z" fill="#277297" stroke="#277297"></path><path d="M568.3 74L414.7 91L542.3 206Z" fill="#1d4e6b" stroke="#1d4e6b"></path><path d="M642 480L710.7 445L626 378Z" fill="#1d4e6b" stroke="#1d4e6b"></path><path d="M626 378L710.7 445L755.7 350Z" fill="#246688" stroke="#246688"></path><path d="M755.7 350L861.3 327L824.3 296Z" fill="#0c2435" stroke="#0c2435"></path><path d="M555.3 465L626 378L564.3 386Z" fill="#246688" stroke="#246688"></path><path d="M447.7 381L555.3 465L564.3 386Z" fill="#19435d" stroke="#19435d"></path><path d="M542.3 0L414.7 91L568.3 74Z" fill="#277297" stroke="#277297"></path><path d="M422.7 201L353 156L393.7 233Z" fill="#081a28" stroke="#081a28"></path><path d="M614 0L542.3 0L568.3 74Z" fill="#1d4e6b" stroke="#1d4e6b"></path><path d="M824.3 296L854.3 193L748.7 235Z" fill="#00101c" stroke="#00101c"></path><path d="M733.7 116L741.7 0L612 82Z" fill="#277297" stroke="#277297"></path><path d="M555.3 465L642 480L626 378Z" fill="#277297" stroke="#277297"></path><path d="M854.3 193L828.3 91L741.7 147Z" fill="#246688" stroke="#246688"></path><path d="M827.3 445L861.3 327L755.7 350Z" fill="#1d4e6b" stroke="#1d4e6b"></path><path d="M824.3 296L861.3 327L854.3 193Z" fill="#277297" stroke="#277297"></path><path d="M828.3 91L741.7 0L733.7 116Z" fill="#112e42" stroke="#112e42"></path><path d="M414.7 91L353 156L422.7 201Z" fill="#19435d" stroke="#19435d"></path><path d="M353 444L422.7 477L447.7 381Z" fill="#297ea6" stroke="#297ea6"></path><path d="M395.7 0L359 109L414.7 91Z" fill="#246688" stroke="#246688"></path><path d="M414.7 91L359 109L353 156Z" fill="#00101c" stroke="#00101c"></path><path d="M710.7 445L827.3 445L755.7 350Z" fill="#19435d" stroke="#19435d"></path><path d="M764.7 540L827.3 445L710.7 445Z" fill="#0c2435" stroke="#0c2435"></path><path d="M555.3 465L638 540L642 480Z" fill="#205a7a" stroke="#205a7a"></path><path d="M642 480L764.7 540L710.7 445Z" fill="#081a28" stroke="#081a28"></path><path d="M526.3 540L638 540L555.3 465Z" fill="#1d4e6b" stroke="#1d4e6b"></path><path d="M314 335L447.7 381L393.7 233Z" fill="#297ea6" stroke="#297ea6"></path><path d="M447.7 381L422.7 477L555.3 465Z" fill="#00101c" stroke="#00101c"></path><path d="M281 291L393.7 233L353 156Z" fill="#15384f" stroke="#15384f"></path><path d="M281 291L314 335L393.7 233Z" fill="#0c2435" stroke="#0c2435"></path><path d="M542.3 0L395.7 0L414.7 91Z" fill="#277297" stroke="#277297"></path><path d="M422.7 477L526.3 540L555.3 465Z" fill="#246688" stroke="#246688"></path><path d="M960 0L836.3 0L828.3 91Z" fill="#0c2435" stroke="#0c2435"></path><path d="M828.3 91L836.3 0L741.7 0Z" fill="#246688" stroke="#246688"></path><path d="M314 335L353 444L447.7 381Z" fill="#19435d" stroke="#19435d"></path><path d="M422.7 477L426.7 540L526.3 540Z" fill="#205a7a" stroke="#205a7a"></path><path d="M208.3 200L281 291L353 156Z" fill="#15384f" stroke="#15384f"></path><path d="M314 335L212.3 475L353 444Z" fill="#081a28" stroke="#081a28"></path><path d="M208.3 200L353 156L199.3 85Z" fill="#246688" stroke="#246688"></path><path d="M638 540L764.7 540L642 480Z" fill="#00101c" stroke="#00101c"></path><path d="M861.3 327L960 272L854.3 193Z" fill="#0c2435" stroke="#0c2435"></path><path d="M854.3 193L960 127L828.3 91Z" fill="#0c2435" stroke="#0c2435"></path><path d="M960 390L960 272L861.3 327Z" fill="#205a7a" stroke="#205a7a"></path><path d="M960 390L861.3 327L827.3 445Z" fill="#246688" stroke="#246688"></path><path d="M960 272L960 164L854.3 193Z" fill="#1d4e6b" stroke="#1d4e6b"></path><path d="M353 444L426.7 540L422.7 477Z" fill="#081a28" stroke="#081a28"></path><path d="M960 164L960 127L854.3 193Z" fill="#081a28" stroke="#081a28"></path><path d="M764.7 540L837.3 540L827.3 445Z" fill="#00101c" stroke="#00101c"></path><path d="M960 451L960 390L827.3 445Z" fill="#19435d" stroke="#19435d"></path><path d="M395.7 0L305 0L359 109Z" fill="#297ea6" stroke="#297ea6"></path><path d="M199.3 85L353 156L359 109Z" fill="#112e42" stroke="#112e42"></path><path d="M281 291L214.3 342L314 335Z" fill="#0c2435" stroke="#0c2435"></path><path d="M837.3 540L960 451L827.3 445Z" fill="#19435d" stroke="#19435d"></path><path d="M192.3 275L214.3 342L281 291Z" fill="#205a7a" stroke="#205a7a"></path><path d="M353 444L298 540L426.7 540Z" fill="#277297" stroke="#277297"></path><path d="M960 127L960 0L828.3 91Z" fill="#205a7a" stroke="#205a7a"></path><path d="M208.3 200L192.3 275L281 291Z" fill="#19435d" stroke="#19435d"></path><path d="M305 0L199.3 85L359 109Z" fill="#00101c" stroke="#00101c"></path><path d="M208.3 200L121.7 207L192.3 275Z" fill="#081a28" stroke="#081a28"></path><path d="M212.3 475L298 540L353 444Z" fill="#112e42" stroke="#112e42"></path><path d="M305 0L214.3 0L199.3 85Z" fill="#112e42" stroke="#112e42"></path><path d="M837.3 540L960 540L960 451Z" fill="#19435d" stroke="#19435d"></path><path d="M144.7 383L212.3 475L214.3 342Z" fill="#081a28" stroke="#081a28"></path><path d="M214.3 342L212.3 475L314 335Z" fill="#205a7a" stroke="#205a7a"></path><path d="M75.7 244L144.7 383L192.3 275Z" fill="#1d4e6b" stroke="#1d4e6b"></path><path d="M192.3 275L144.7 383L214.3 342Z" fill="#19435d" stroke="#19435d"></path><path d="M121.7 207L208.3 200L199.3 85Z" fill="#246688" stroke="#246688"></path><path d="M83.7 108L121.7 207L199.3 85Z" fill="#205a7a" stroke="#205a7a"></path><path d="M113.7 540L192.3 540L212.3 475Z" fill="#19435d" stroke="#19435d"></path><path d="M212.3 475L192.3 540L298 540Z" fill="#081a28" stroke="#081a28"></path><path d="M121.7 207L75.7 244L192.3 275Z" fill="#112e42" stroke="#112e42"></path><path d="M144.7 383L79.7 472L212.3 475Z" fill="#297ea6" stroke="#297ea6"></path><path d="M0 172L75.7 244L121.7 207Z" fill="#0c2435" stroke="#0c2435"></path><path d="M89.7 0L83.7 108L199.3 85Z" fill="#19435d" stroke="#19435d"></path><path d="M214.3 0L89.7 0L199.3 85Z" fill="#112e42" stroke="#112e42"></path><path d="M0 172L0 253L75.7 244Z" fill="#00101c" stroke="#00101c"></path><path d="M0 420L79.7 472L144.7 383Z" fill="#277297" stroke="#277297"></path><path d="M79.7 472L113.7 540L212.3 475Z" fill="#112e42" stroke="#112e42"></path><path d="M75.7 244L0 344L144.7 383Z" fill="#297ea6" stroke="#297ea6"></path><path d="M0 172L121.7 207L83.7 108Z" fill="#19435d" stroke="#19435d"></path><path d="M0 120L0 172L83.7 108Z" fill="#205a7a" stroke="#205a7a"></path><path d="M0 253L0 344L75.7 244Z" fill="#112e42" stroke="#112e42"></path><path d="M79.7 472L0 540L113.7 540Z" fill="#277297" stroke="#277297"></path><path d="M0 0L0 120L83.7 108Z" fill="#112e42" stroke="#112e42"></path><path d="M0 344L0 420L144.7 383Z" fill="#297ea6" stroke="#297ea6"></path><path d="M89.7 0L0 0L83.7 108Z" fill="#246688" stroke="#246688"></path><path d="M0 420L0 540L79.7 472Z" fill="#081a28" stroke="#081a28"></path></g></svg>