<svg id="visual" viewBox="0 0 900 450" width="900" height="450" xmlns="http://www.w3.org/2000/svg" xmlns:xlink="http://www.w3.org/1999/xlink" version="1.1"><path d="M0 55L82 60L164 64L245 51L327 78L409 51L491 60L573 64L655 60L736 60L818 37L900 46L900 0L818 0L736 0L655 0L573 0L491 0L409 0L327 0L245 0L164 0L82 0L0 0Z" fill="#00a1cc"></path><path d="M0 213L82 150L164 240L245 132L327 168L409 208L491 118L573 172L655 159L736 177L818 240L900 204L900 44L818 35L736 58L655 58L573 62L491 58L409 49L327 76L245 49L164 62L82 58L0 53Z" fill="#0085c1"></path><path d="M0 294L82 244L164 307L245 231L327 276L409 289L491 231L573 253L655 204L736 249L818 316L900 294L900 202L818 238L736 175L655 157L573 170L491 116L409 206L327 166L245 130L164 238L82 148L0 211Z" fill="#0068b0"></path><path d="M0 393L82 366L164 370L245 388L327 420L409 361L491 375L573 415L655 388L736 379L818 406L900 393L900 292L818 314L736 247L655 202L573 251L491 229L409 287L327 274L245 229L164 305L82 242L0 292Z" fill="#004b9b"></path><path d="M0 451L82 451L164 451L245 451L327 451L409 451L491 451L573 451L655 451L736 451L818 451L900 451L900 391L818 404L736 377L655 386L573 413L491 373L409 359L327 418L245 386L164 368L82 364L0 391Z" fill="#032d82"></path></svg>