<svg id="visual" viewBox="0 0 960 540" width="960" height="540" xmlns="http://www.w3.org/2000/svg" xmlns:xlink="http://www.w3.org/1999/xlink" version="1.1"><rect x="0" y="0" width="960" height="540" fill="#002233"></rect><path d="M0 356L22.8 343.8C45.7 331.7 91.3 307.3 137 320C182.7 332.7 228.3 382.3 274 396.7C319.7 411 365.3 390 411.2 368.3C457 346.7 503 324.3 548.8 309.7C594.7 295 640.3 288 686 301.5C731.7 315 777.3 349 823 350.7C868.7 352.3 914.3 321.7 937.2 306.3L960 291L960 541L937.2 541C914.3 541 868.7 541 823 541C777.3 541 731.7 541 686 541C640.3 541 594.7 541 548.8 541C503 541 457 541 411.2 541C365.3 541 319.7 541 274 541C228.3 541 182.7 541 137 541C91.3 541 45.7 541 22.8 541L0 541Z" fill="#0066FF" stroke-linecap="round" stroke-linejoin="miter"></path></svg>